<?xml version="1.0" standalone="no"?>
<!DOCTYPE svg PUBLIC "-//W3C//DTD SVG 20010904//EN"
 "http://www.w3.org/TR/2001/REC-SVG-20010904/DTD/svg10.dtd">
<svg version="1.0" xmlns="http://www.w3.org/2000/svg"
 width="741.000000pt" height="700.000000pt" viewBox="0 0 741.000000 700.000000"
 preserveAspectRatio="xMidYMid meet">

<g transform="translate(0.000000,700.000000) scale(0.100000,-0.100000)"
fill="#000000" stroke="none">
<path d="M3450 6670 c-760 -66 -1471 -390 -2001 -912 -154 -152 -229 -237
-345 -393 -574 -773 -771 -1775 -534 -2716 113 -446 323 -867 616 -1234 113
-141 348 -377 489 -489 525 -418 1133 -659 1785 -707 408 -30 853 21 1222 141
203 65 301 105 478 194 814 410 1425 1155 1666 2035 122 447 147 937 69 1397
-147 868 -648 1646 -1375 2133 -190 127 -318 199 -495 277 -313 138 -612 219
-975 264 -118 15 -474 21 -600 10z m279 -234 c9 -11 9 -20 2 -34 -8 -16 -26
-20 -102 -25 -158 -12 -197 -9 -208 12 -11 20 2 44 29 54 8 3 72 6 141 6 99 1
129 -2 138 -13z m369 -7 c57 -7 104 -18 114 -27 17 -14 16 -16 -8 -38 -14 -13
-26 -24 -27 -24 -21 0 -252 32 -258 36 -11 6 -12 48 -2 57 9 10 72 8 181 -4z
m-871 -31 c6 -7 10 -21 10 -31 0 -15 -5 -13 -31 10 -17 16 -33 29 -35 31 -2 1
7 2 21 2 14 0 30 -6 35 -12z m-87 -13 c-11 -13 -10 -14 2 -10 7 3 24 -5 37
-19 l23 -24 -48 -7 c-27 -4 -74 -13 -105 -21 -68 -17 -69 -17 -69 -3 0 6 7 8
18 4 13 -5 14 -3 6 5 -16 16 51 77 91 83 59 8 59 8 45 -8z m-150 -19 c0 -8
-47 -56 -54 -56 -3 0 -6 5 -6 11 0 5 6 7 13 3 8 -5 8 -3 -2 9 -12 15 -10 18
10 26 27 11 39 13 39 7z m1559 -31 c133 -35 179 -66 150 -101 -28 -34 -149 9
-218 78 -57 57 -56 57 68 23z m-84 -53 c-8 -9 -57 13 -66 29 -19 37 3 41 36 7
18 -18 32 -34 30 -36z m-1705 -13 c15 -27 2 -42 -58 -64 -26 -10 -75 -30 -110
-46 -35 -16 -74 -29 -86 -29 -28 0 -50 24 -42 45 7 20 114 68 133 61 8 -3 12
-2 9 3 -6 10 87 48 121 50 13 1 27 -8 33 -20z m2268 -119 c56 -27 102 -55 102
-62 0 -7 -12 -21 -26 -31 -25 -19 -26 -18 -128 31 -57 28 -107 55 -110 61 -4
6 -4 20 -1 31 10 32 50 24 163 -30z m-2723 -70 c3 -5 1 -10 -4 -10 -6 0 -11 5
-11 10 0 6 2 10 4 10 3 0 8 -4 11 -10z m-32 -28 l27 -28 -115 -68 c-122 -72
-155 -79 -155 -30 0 24 26 44 170 131 45 27 42 28 73 -5z m2877 -17 c-7 -8
-17 -15 -23 -15 -5 0 -2 9 8 20 21 23 35 19 15 -5z m296 -134 c56 -39 106 -77
113 -85 18 -22 10 -60 -14 -64 -25 -3 -239 147 -243 172 -4 19 15 46 32 46 7
0 57 -31 112 -69z m-3551 -100 c9 -30 -3 -47 -78 -108 -40 -31 -83 -68 -97
-80 -26 -24 -38 -27 -64 -17 -41 16 -12 54 129 173 63 53 100 64 110 32z
m3887 -178 c46 -48 47 -48 28 -70 -10 -13 -22 -23 -28 -23 -5 0 -31 23 -57 51
-45 48 -46 51 -29 70 25 28 34 24 86 -28z m122 -120 c32 -36 38 -48 29 -61
-18 -29 -41 -25 -85 17 l-43 39 24 26 c14 14 27 26 30 25 3 0 24 -21 45 -46z
m-4380 -29 c21 -20 20 -36 -1 -60 -10 -11 -49 -55 -87 -99 -83 -97 -91 -102
-117 -79 -10 9 -19 20 -19 23 0 19 184 231 200 231 5 0 16 -7 24 -16z m4580
-201 c45 -58 74 -108 69 -118 -4 -5 -3 -7 2 -3 9 8 51 -44 61 -74 7 -23 -12
-48 -35 -48 -21 1 -94 96 -85 111 4 7 3 9 -4 5 -6 -4 -28 18 -51 53 -45 66
-47 71 -29 89 20 20 49 14 72 -15z m-4879 -193 c17 -18 16 -21 -15 -72 -18
-29 -46 -78 -63 -108 -16 -30 -31 -57 -33 -59 -5 -6 -54 43 -54 55 0 16 98
177 117 192 22 16 27 15 48 -8z m5125 -198 c0 -5 -11 -19 -25 -32 -22 -20 -25
-21 -31 -6 -3 9 -1 23 6 31 13 16 50 21 50 7z m-5270 -70 c-20 -7 -40 7 -40
29 l0 22 26 -24 c14 -13 20 -25 14 -27z m5345 -56 c54 -110 59 -131 39 -151
-20 -19 -27 -19 -46 3 -28 31 -99 182 -92 195 12 21 37 47 45 47 4 0 28 -42
54 -94z m-5435 -111 c13 -16 10 -30 -31 -135 -66 -166 -73 -176 -108 -139 -18
20 -18 22 9 97 66 183 94 221 130 177z m5568 -217 c20 -26 89 -268 75 -268
-10 0 -100 101 -100 112 -1 7 -11 41 -24 75 -19 51 -20 64 -10 77 16 19 45 21
59 4z m-260 -263 c4 -48 -15 -243 -32 -337 -7 -38 -11 -68 -8 -68 3 0 29 23
59 51 47 44 57 50 91 47 34 -3 37 -6 40 -35 4 -37 -34 -118 -85 -181 -25 -31
-33 -48 -28 -63 11 -34 132 -149 179 -170 62 -27 72 -43 47 -68 -25 -25 -50
-26 -117 -6 -38 11 -68 31 -118 80 -69 65 -94 80 -81 48 8 -22 23 -101 31
-163 7 -51 -9 -74 -47 -68 -31 4 -60 100 -60 195 0 41 -6 78 -13 88 -11 15
-19 3 -62 -94 -58 -132 -73 -151 -119 -151 -75 0 -90 51 -82 279 l7 174 -21
-19 c-12 -10 -33 -39 -47 -64 -14 -25 -31 -52 -37 -60 -7 -8 -20 -39 -29 -67
-21 -64 -55 -93 -107 -93 -40 0 -99 39 -99 65 0 30 -22 115 -30 115 -5 0 -11
-28 -14 -62 -13 -145 -18 -184 -27 -193 -5 -5 -9 -26 -9 -46 0 -92 -60 -179
-124 -179 -50 0 -61 19 -102 168 -16 62 -20 302 -4 302 6 0 10 19 10 43 l-1
42 -20 -37 c-11 -21 -24 -38 -29 -38 -6 0 -10 -29 -10 -64 0 -36 -4 -68 -10
-71 -5 -3 -10 -33 -10 -66 0 -33 -4 -59 -10 -59 -5 0 -10 -17 -10 -39 0 -94
-58 -181 -121 -181 -42 0 -53 10 -75 71 -28 75 -36 120 -43 237 l-6 112 -26
-52 c-14 -29 -43 -89 -65 -133 l-39 -80 -44 0 c-41 0 -47 3 -65 35 -19 32 -21
50 -19 218 0 100 -2 182 -6 182 -10 0 -71 -85 -71 -98 0 -5 -6 -15 -14 -21 -7
-6 -23 -38 -35 -71 -26 -70 -59 -100 -111 -100 -28 0 -46 8 -69 29 l-31 29
-31 -61 c-16 -34 -35 -84 -41 -112 -5 -27 -21 -67 -34 -87 -22 -35 -28 -38
-69 -38 -36 0 -47 4 -57 23 -32 57 -37 91 -28 177 6 47 13 111 16 144 3 32 12
76 20 98 16 46 19 158 4 158 -5 0 -10 -5 -10 -12 0 -6 -6 -19 -14 -27 -22 -24
-110 -199 -132 -259 -24 -68 -43 -86 -84 -77 -38 8 -61 42 -68 100 -2 25 -8
47 -12 50 -4 2 -24 -27 -46 -66 -60 -111 -105 -134 -148 -76 -25 34 -34 144
-18 221 6 28 17 83 24 121 l13 70 34 -2 c19 -1 42 -10 52 -20 19 -18 19 -21
-1 -113 -16 -76 -24 -170 -14 -170 1 0 13 17 26 38 14 20 42 54 63 75 31 32
42 38 74 35 l36 -3 3 -53 3 -54 64 97 c35 53 70 102 78 108 8 7 28 33 46 58
39 55 66 72 112 67 45 -4 64 -41 50 -95 -5 -21 -12 -69 -15 -108 -3 -38 -13
-101 -22 -140 -22 -91 -29 -185 -15 -185 11 0 71 108 81 145 3 11 16 25 28 30
18 8 22 16 18 35 -4 24 9 212 19 258 5 18 12 22 44 22 67 0 72 -13 66 -164
l-6 -131 23 29 c83 104 126 150 180 191 55 41 66 46 97 40 62 -12 64 -16 56
-144 -3 -63 -10 -123 -15 -135 -4 -12 -10 -57 -14 -101 l-7 -80 35 60 c99 174
121 208 138 213 16 4 18 14 17 91 -2 94 10 408 16 429 3 7 22 12 51 12 l46 0
-7 -162 c-7 -182 -16 -456 -14 -475 2 -37 0 -84 -6 -135 -6 -49 -5 -58 8 -58
8 0 17 -6 20 -12 2 -7 14 19 27 57 30 95 50 135 64 135 8 0 13 16 13 44 0 30
7 52 21 71 12 15 22 35 22 44 0 9 11 35 24 58 29 51 46 169 46 326 l0 107 51
0 51 0 -6 -132 c-3 -73 -8 -207 -11 -298 -3 -91 -8 -217 -10 -280 -5 -104 -3
-116 13 -127 17 -10 21 -3 45 71 15 45 36 92 47 104 11 12 20 32 20 46 0 31
16 73 35 92 8 9 15 24 15 35 0 11 5 30 12 42 7 12 17 47 23 77 11 55 12 55 52
58 62 5 66 -7 64 -161 -1 -75 2 -128 6 -122 5 6 29 36 53 68 49 65 138 150
181 173 40 20 97 9 111 -22 14 -30 -9 -259 -37 -381 -13 -57 12 -38 50 37 44
88 103 180 118 186 8 3 12 37 13 102 1 100 8 200 24 357 5 50 10 98 10 108 0
15 7 18 48 15 l47 -3 3 -40z m-5489 18 c-7 -10 -21 -26 -31 -36 -17 -16 -18
-17 -18 -1 0 22 29 54 48 54 12 0 12 -3 1 -17z m5793 -51 c-18 -5 -38 15 -47
48 -7 23 -5 22 27 -10 25 -25 31 -36 20 -38z m-5782 -79 c-12 -59 -23 -109
-25 -111 -7 -7 -65 71 -65 87 0 22 59 100 76 100 7 1 14 11 17 23 4 12 9 19
13 16 3 -4 -4 -55 -16 -115z m-70 -109 c0 5 10 -4 21 -19 18 -22 20 -29 8 -36
-8 -5 -23 -8 -34 -7 -16 3 -20 11 -22 48 -2 42 -1 44 12 26 8 -11 15 -16 15
-12z m5953 -116 c25 -163 21 -188 -25 -188 -24 0 -32 25 -48 148 -12 102 -12
103 11 128 12 13 28 24 34 24 7 0 18 -44 28 -112z m-3198 67 c20 -19 25 -34
25 -75 0 -43 -5 -58 -32 -90 -18 -22 -40 -40 -50 -40 -18 0 -38 47 -38 94 l-1
31 -39 -43 c-51 -57 -98 -158 -144 -312 -49 -162 -59 -180 -96 -180 -24 0 -30
5 -37 33 -11 39 -9 134 2 201 8 47 8 48 -13 37 -12 -7 -22 -16 -22 -21 0 -5
-13 -23 -29 -39 -16 -16 -35 -38 -42 -48 -8 -10 -39 -41 -69 -69 -50 -46 -60
-50 -108 -53 -48 -2 -56 1 -86 31 -33 33 -56 89 -56 136 0 32 -15 28 -76 -24
-41 -35 -55 -55 -60 -82 -4 -21 -10 -41 -14 -47 -4 -5 -11 -38 -15 -73 -4 -34
-11 -65 -16 -68 -5 -3 -9 -24 -9 -47 0 -23 -5 -60 -10 -82 -16 -61 -41 -147
-50 -175 -5 -14 -14 -44 -20 -68 -16 -61 -40 -82 -96 -82 -40 0 -51 5 -84 38
-47 47 -57 89 -43 193 10 73 23 109 82 225 33 66 91 144 165 224 39 43 46 66
52 170 5 87 4 99 -9 94 -30 -11 -164 -149 -190 -196 -15 -26 -36 -50 -48 -53
-48 -16 -113 24 -124 75 -8 35 19 130 46 164 l20 26 -23 0 c-38 -1 -122 -52
-130 -80 -4 -14 -15 -52 -23 -85 -21 -77 -40 -116 -82 -165 -57 -66 -115 -85
-173 -55 -30 16 -67 68 -79 112 -7 27 -7 27 -33 -19 -14 -25 -28 -66 -32 -90
-7 -46 -40 -117 -60 -130 -36 -24 -116 4 -116 39 0 8 -6 26 -14 41 -11 23 -11
41 0 117 8 50 16 116 18 147 3 31 12 77 20 103 17 48 20 85 10 122 -6 22 -6
22 -28 -5 -25 -32 -105 -191 -138 -276 -26 -66 -43 -82 -79 -73 -46 12 -59 30
-72 101 l-13 68 -43 -81 c-50 -92 -56 -98 -99 -107 -27 -6 -33 -2 -52 27 -19
30 -20 45 -16 134 5 107 11 163 24 235 9 52 31 62 81 35 37 -18 37 -24 11
-149 -12 -57 -16 -104 -12 -117 8 -21 9 -21 26 7 10 15 37 47 59 71 31 33 47
43 71 43 42 0 56 -16 56 -64 l0 -39 32 47 c18 26 44 64 58 85 41 62 131 171
150 181 10 6 35 10 55 10 50 0 58 -23 45 -125 -5 -44 -12 -107 -15 -139 -3
-32 -10 -67 -16 -78 -6 -10 -7 -28 -4 -38 4 -11 2 -20 -3 -20 -11 0 -26 -116
-16 -131 8 -13 20 4 70 100 21 41 46 76 55 78 10 3 21 25 29 58 11 46 10 58
-5 98 -23 62 -14 128 22 157 41 32 152 28 218 -8 47 -25 58 -39 102 -130 0 -2
31 6 68 17 37 12 83 21 102 21 26 0 40 7 60 30 40 49 98 73 154 67 26 -3 57
-12 68 -18 17 -11 23 -10 40 5 25 23 82 15 113 -16 23 -23 22 -30 -16 -171
-20 -77 -21 -87 -7 -82 9 4 30 12 46 18 36 12 42 20 55 70 17 59 49 108 112
170 64 63 95 71 162 43 91 -38 102 -104 31 -195 -50 -66 -99 -94 -162 -93 -46
0 -48 -3 -44 -73 4 -72 12 -95 32 -95 18 0 100 63 239 182 25 22 50 43 56 48
6 4 14 25 18 47 3 21 23 70 44 108 36 68 38 70 80 73 39 3 43 1 56 -28 l13
-32 23 37 c26 42 74 75 108 75 13 0 34 -11 47 -25z m-2755 -200 c10 -12 11
-48 7 -143 -6 -150 -10 -164 -46 -160 -22 3 -27 9 -31 43 -3 22 -3 87 0 143 5
87 8 106 25 118 24 18 30 18 45 -1z m5970 -240 c20 -24 7 -282 -14 -304 -13
-12 -20 -13 -34 -5 -14 10 -17 31 -20 149 -2 118 0 140 14 156 21 23 37 24 54
4z m-5974 -253 c6 -4 17 -52 23 -107 6 -54 14 -108 17 -120 5 -24 -37 -82 -54
-71 -14 9 -35 111 -30 147 3 15 1 26 -4 23 -10 -6 -11 120 -1 129 8 9 35 9 49
-1z m5932 -244 c7 -7 12 -23 12 -37 l0 -25 -30 29 c-29 27 -31 45 -6 45 6 0
17 -5 24 -12z m-8 -150 c-8 -33 -25 -58 -56 -88 -25 -23 -47 -41 -49 -38 -2 2
2 30 10 63 7 33 19 86 25 119 l12 59 35 -35 c34 -34 34 -35 23 -80z m-5840
-93 c7 -8 9 -15 6 -15 -4 0 -14 7 -22 15 -9 8 -11 15 -6 15 5 0 15 -7 22 -15z
m58 -175 c12 -41 22 -83 22 -92 0 -25 -33 -40 -53 -25 -19 14 -76 183 -84 246
l-5 46 49 -50 c41 -42 53 -63 71 -125z m5737 130 c-10 -11 -23 -20 -29 -20 -6
1 0 10 13 20 30 26 39 26 16 0z m-5305 -220 l0 -40 40 0 40 0 0 40 c0 29 4 40
15 40 12 0 15 -17 15 -90 0 -73 -3 -90 -15 -90 -11 0 -15 11 -15 40 l0 40 -40
0 -40 0 0 -40 c0 -29 -4 -40 -15 -40 -12 0 -15 17 -15 90 0 73 3 90 15 90 11
0 15 -11 15 -40z m409 -37 c17 -43 31 -81 31 -85 0 -16 -19 -7 -25 12 -5 16
-15 20 -50 20 -35 0 -45 -4 -50 -20 -3 -11 -11 -20 -16 -20 -5 0 2 29 15 64
30 79 44 106 55 106 5 0 23 -35 40 -77z m287 5 l39 -73 3 73 c4 104 22 89 22
-19 0 -78 -2 -90 -16 -87 -9 2 -32 35 -53 73 l-36 70 -3 -72 c-4 -105 -22 -91
-22 17 0 114 13 117 66 18z m370 49 c21 -19 27 -32 27 -67 0 -57 -35 -90 -94
-90 l-39 0 0 90 0 90 39 0 c27 0 49 -7 67 -23z m277 -34 l25 -58 25 58 c40 88
57 78 57 -33 0 -108 -18 -122 -22 -17 l-3 72 -22 -47 c-12 -27 -28 -48 -36
-48 -7 0 -23 21 -34 48 l-21 47 -1 -72 c-1 -42 -5 -73 -11 -73 -6 0 -10 37
-10 90 0 109 15 119 53 33z m414 -24 c17 -41 32 -77 32 -81 2 -17 -18 -7 -24
12 -5 16 -15 20 -52 20 -36 0 -46 -4 -50 -20 -5 -19 -23 -29 -23 -12 0 23 64
162 74 159 6 -2 25 -37 43 -78z m320 57 c61 -53 21 -156 -61 -156 -40 0 -46
11 -46 90 0 32 3 65 6 74 10 25 68 20 101 -8z m323 14 c0 -5 -18 -10 -40 -10
-38 0 -40 -2 -40 -30 0 -28 3 -30 35 -30 19 0 35 -4 35 -10 0 -5 -16 -10 -35
-10 -32 0 -35 -2 -35 -30 0 -28 2 -30 40 -30 22 0 40 -4 40 -10 0 -5 -22 -10
-50 -10 l-50 0 0 90 0 90 50 0 c28 0 50 -4 50 -10z m525 0 c4 -6 -6 -10 -24
-10 -54 0 -80 -69 -45 -119 13 -18 24 -22 50 -19 35 4 46 -5 18 -16 -30 -12
-55 -6 -79 19 -34 33 -34 92 0 129 24 26 68 35 80 16z m225 -70 l0 -80 40 0
c22 0 40 -4 40 -10 0 -5 -22 -10 -50 -10 l-50 0 0 90 c0 53 4 90 10 90 6 0 10
-33 10 -80z m387 56 c22 -19 28 -32 28 -66 0 -77 -79 -117 -130 -65 -51 50
-18 155 49 155 14 0 37 -11 53 -24z m333 14 c0 -5 -13 -10 -30 -10 l-30 0 0
-82 c0 -59 -3 -79 -11 -71 -6 6 -9 39 -7 82 l3 71 -27 0 c-16 0 -28 5 -28 10
0 6 28 10 65 10 37 0 65 -4 65 -10z m200 -30 l0 -40 45 0 45 0 0 40 c0 22 5
40 10 40 6 0 10 -37 10 -90 0 -53 -4 -90 -10 -90 -5 0 -10 18 -10 40 l0 40
-45 0 -45 0 0 -40 c0 -22 -4 -40 -10 -40 -6 0 -10 37 -10 90 0 53 4 90 10 90
6 0 10 -18 10 -40z m420 30 c0 -5 -19 -10 -43 -10 -43 0 -43 -1 -39 -30 4 -27
8 -30 38 -30 19 0 34 -4 34 -10 0 -5 -16 -10 -35 -10 -32 0 -35 -2 -35 -30 0
-28 2 -30 40 -30 22 0 40 -4 40 -10 0 -5 -25 -10 -55 -10 l-55 0 0 90 0 90 55
0 c30 0 55 -4 55 -10z m274 4 c29 -11 17 -20 -20 -16 -23 3 -39 0 -44 -9 -12
-18 -5 -26 41 -49 77 -40 37 -117 -48 -94 -37 10 -26 21 20 20 35 -1 42 2 45
19 2 15 -7 25 -32 38 -49 23 -62 51 -36 77 20 20 45 25 74 14z m475 -7 c12
-15 10 -29 -18 -107 -30 -88 -66 -164 -85 -179 -15 -13 -20 -12 -37 6 -20 19
-20 20 27 144 26 68 52 130 57 137 12 16 42 15 56 -1z m-5573 -225 c9 -6 104
-195 104 -207 0 -7 -52 -56 -55 -53 -14 14 -105 218 -105 235 0 28 31 42 56
25z m5370 -221 c-4 -5 -1 -12 4 -14 6 -3 5 -4 -2 -3 -15 3 -23 26 -8 26 6 0 9
-4 6 -9z m-3 -54 c4 -12 -36 -84 -98 -177 -32 -48 -60 -57 -79 -28 -8 14 -5
27 14 62 13 25 29 42 34 39 6 -4 8 -3 4 2 -4 4 6 33 24 64 46 83 46 83 73 65
13 -8 25 -21 28 -27z m-5253 -2 c-7 -8 -19 -15 -28 -15 -12 0 -10 6 9 26 24
26 41 16 19 -11z m190 -250 c87 -117 97 -139 80 -160 -7 -8 -18 -15 -24 -15
-26 0 -141 144 -130 163 4 6 3 8 -1 4 -5 -4 -19 9 -31 29 -17 28 -20 42 -13
56 20 38 47 20 119 -77z m4798 -108 c24 -16 11 -47 -50 -119 -98 -114 -115
-130 -140 -126 -34 5 -35 42 -2 78 15 16 32 26 37 23 6 -3 7 -2 4 4 -10 16
105 152 126 149 7 -1 18 -5 25 -9z m-4525 -225 l47 -48 -24 -23 c-28 -27 -47
-21 -89 30 -29 36 -34 58 -15 77 20 20 31 14 81 -36z m117 -118 c39 -42 41
-47 27 -67 -8 -12 -19 -22 -24 -22 -5 0 -31 19 -58 42 l-49 42 24 26 c13 14
27 25 30 25 4 0 26 -21 50 -46z m4074 -23 c11 -12 15 -25 10 -33 -12 -20 -126
-125 -173 -159 -46 -33 -68 -34 -85 -6 -9 16 -4 25 34 59 68 62 184 158 191
158 3 0 14 -9 23 -19z m-3770 -223 c128 -91 132 -96 119 -117 -18 -29 -50 -24
-115 20 -84 57 -158 119 -158 134 0 15 21 35 38 35 8 0 60 -32 116 -72z m3386
-87 c5 -11 10 -22 10 -24 0 -9 -106 -84 -158 -112 l-53 -29 -24 30 -23 29 31
19 c18 11 63 39 101 63 77 48 100 52 116 24z m-3095 -141 c-25 -27 -43 -9 -19
19 12 13 22 17 28 11 6 -6 3 -17 -9 -30z m89 -5 c8 -8 21 -15 28 -16 22 -1
130 -63 141 -81 13 -19 -6 -48 -30 -48 -18 0 -223 99 -223 108 0 11 44 52 56
52 7 0 19 -7 28 -15z m2766 -33 c-20 -7 -40 7 -40 29 l0 22 26 -24 c14 -13 20
-25 14 -27z m-195 -72 c0 -21 -11 -30 -64 -56 -90 -44 -189 -76 -211 -69 -13
4 -20 15 -20 31 0 27 4 29 150 88 102 41 145 43 145 6z m-2111 -82 c74 -24
120 -54 109 -71 -3 -6 -2 -7 4 -4 6 4 21 -5 33 -18 l23 -25 -22 0 c-30 0 -234
62 -242 73 -3 5 -10 8 -15 7 -11 -1 -17 26 -10 46 8 20 38 18 120 -8z m176
-63 c20 -24 6 -28 -15 -5 -10 11 -13 20 -8 20 6 0 16 -7 23 -15z m1402 -34
c-69 -63 -100 -69 -149 -25 -36 33 -36 33 -12 38 13 3 51 12 84 20 33 8 76 14
95 15 l35 0 -53 -48z m65 -6 c-4 -8 -13 -15 -22 -15 -13 0 -12 3 2 20 19 22
29 19 20 -5z m-1097 -10 c106 -10 144 -33 116 -70 -12 -16 -22 -16 -137 -5
-68 7 -135 17 -148 22 l-24 9 29 30 c24 25 34 29 64 25 19 -3 64 -8 100 -11z
m816 -1 c-3 -9 -2 -12 5 -9 12 8 51 -24 43 -36 -8 -14 -50 -10 -64 6 -13 15
-5 55 12 55 5 0 7 -7 4 -16z m-202 -36 c8 -14 7 -22 -7 -35 -15 -16 -37 -18
-160 -18 l-142 0 0 30 c0 26 4 31 35 36 19 4 86 6 149 5 96 -1 116 -4 125 -18z"/>
<path d="M6342 3776 c-45 -49 -80 -111 -69 -123 18 -17 122 121 115 153 -2 13
-14 5 -46 -30z"/>
<path d="M1746 3798 c-9 -12 -16 -32 -16 -43 0 -18 5 -21 29 -17 28 4 84 -18
96 -38 3 -5 1 -19 -5 -30 -13 -24 0 -26 49 -9 36 13 37 17 11 68 -42 83 -129
119 -164 69z"/>
<path d="M2863 3758 c-39 -41 -66 -95 -53 -103 16 -10 97 31 115 58 9 14 15
36 13 49 -5 36 -39 34 -75 -4z"/>
<path d="M2368 3730 c-31 -22 -65 -54 -76 -72 -12 -18 -31 -46 -44 -63 -20
-27 -17 -26 22 9 165 142 219 213 98 126z"/>
<path d="M1867 3591 c-32 -9 -62 -23 -67 -31 -11 -17 -13 -120 -4 -144 14 -37
53 -14 90 54 10 19 24 42 31 50 14 19 28 90 17 89 -5 -1 -35 -9 -67 -18z"/>
<path d="M2390 3248 c-22 -35 -61 -104 -87 -155 -39 -78 -47 -103 -51 -166 -6
-104 22 -147 65 -98 35 41 92 222 107 336 3 22 8 64 12 93 4 28 4 52 1 52 -4
0 -25 -28 -47 -62z"/>
<path d="M1667 2420 l-15 -40 34 0 c19 0 34 2 34 4 0 7 -30 76 -34 76 -1 0
-10 -18 -19 -40z"/>
<path d="M2300 2400 l0 -70 29 0 c40 0 61 24 61 70 0 46 -21 70 -61 70 l-29 0
0 -70z"/>
<path d="M3016 2428 c-21 -49 -21 -48 14 -48 33 0 36 10 16 55 l-14 30 -16
-37z"/>
<path d="M3320 2400 c0 -66 1 -70 23 -70 28 0 41 9 56 38 23 44 -8 102 -55
102 -23 0 -24 -3 -24 -70z"/>
<path d="M4767 2452 c-23 -25 -22 -85 1 -105 59 -54 132 32 82 96 -25 31 -60
35 -83 9z"/>
</g>
</svg>
