<?xml version="1.0" standalone="no"?>
<!DOCTYPE svg PUBLIC "-//W3C//DTD SVG 20010904//EN"
 "http://www.w3.org/TR/2001/REC-SVG-20010904/DTD/svg10.dtd">
<svg version="1.0" xmlns="http://www.w3.org/2000/svg"
 width="568.000000pt" height="546.000000pt" viewBox="0 0 568.000000 546.000000"
 preserveAspectRatio="xMidYMid meet">

<g transform="translate(0.000000,546.000000) scale(0.100000,-0.100000)"
fill="#000000" stroke="none">
<path d="M2565 4814 c-42 -22 -134 -93 -166 -129 -15 -16 -44 -48 -64 -70
-127 -139 -255 -395 -255 -511 0 -38 -57 -240 -76 -269 -19 -29 -44 -101 -55
-162 -6 -29 -23 -81 -40 -116 -16 -36 -33 -93 -38 -133 -5 -38 -21 -95 -35
-128 -14 -32 -26 -71 -26 -87 0 -15 -5 -31 -11 -35 -6 -4 -9 -19 -5 -36 4 -20
-1 -46 -14 -76 -27 -59 -37 -122 -20 -122 13 0 10 -29 -8 -88 -6 -18 -7 -30
-1 -27 13 8 11 -6 -3 -38 -9 -19 -18 -25 -30 -21 -10 3 -18 0 -18 -6 0 -6 -16
-43 -35 -83 -19 -39 -35 -82 -35 -95 0 -13 -9 -58 -19 -100 -11 -43 -24 -120
-30 -174 -16 -140 -42 -193 -115 -230 -23 -12 -32 -27 -42 -64 -15 -58 -7 -76
50 -114 23 -16 34 -30 30 -40 -3 -8 -8 -37 -11 -64 -5 -36 -8 -44 -15 -32 -16
29 -101 -228 -159 -479 -12 -49 -22 -103 -24 -120 -4 -47 -17 -108 -26 -127
-5 -9 -11 -45 -14 -80 -10 -137 -56 -378 -90 -468 -9 -25 -19 -65 -22 -90 -3
-25 -12 -54 -19 -64 -9 -13 -10 -24 -4 -31 7 -8 1 -22 -18 -42 -32 -37 -38
-86 -18 -157 8 -28 17 -63 20 -78 l6 -28 533 0 c449 1 535 3 551 15 29 22 35
116 10 142 -53 56 -84 92 -84 97 0 3 7 6 16 6 11 0 14 5 10 16 -3 9 -6 18 -6
20 0 2 -8 4 -19 4 -12 0 -21 9 -24 28 -10 49 -39 207 -41 222 -2 21 -16 40
-59 79 -29 27 -40 32 -49 23 -7 -7 -19 -12 -28 -12 -8 0 -30 -16 -47 -35 -37
-40 -64 -44 -93 -15 -11 11 -23 21 -27 21 -10 2 -21 5 -60 17 -36 12 -52 3
-119 -65 -24 -24 -48 -43 -53 -43 -6 0 -11 -11 -11 -25 0 -27 -6 -30 -29 -16
-12 8 -13 18 -2 63 6 29 23 73 36 98 32 58 65 128 101 215 27 65 29 68 32 38
2 -18 8 -33 13 -33 6 0 8 8 5 18 -33 114 -51 337 -41 492 5 63 7 151 6 195 -2
87 13 183 30 200 9 7 10 2 5 -17 -3 -16 -2 -28 3 -28 5 0 22 -13 38 -30 25
-27 34 -30 86 -30 36 0 67 -6 82 -16 24 -15 25 -15 34 9 12 30 32 38 74 30 49
-9 92 -35 199 -116 20 -16 41 -26 47 -23 5 3 12 0 15 -6 3 -7 4 -2 3 12 -2 25
-1 25 71 25 73 0 91 9 92 43 0 6 7 12 15 12 9 0 27 7 40 16 14 9 25 12 25 8 0
-5 7 -1 14 9 12 15 15 15 25 3 7 -8 16 -27 21 -43 l8 -28 1 27 c1 15 -3 38 -9
52 -9 26 -9 26 36 21 25 -3 80 -15 122 -26 42 -12 89 -23 105 -26 15 -3 27
-10 27 -16 0 -6 3 -8 6 -5 13 14 58 -49 64 -89 6 -36 1 -56 -32 -130 -30 -68
-39 -101 -40 -146 0 -32 1 -60 4 -63 3 -2 13 7 22 21 14 21 15 32 5 68 -10 41
-8 48 25 114 20 39 36 75 36 82 0 6 5 11 10 11 6 0 10 7 10 15 0 21 5 20 69
-19 31 -18 80 -45 110 -60 109 -54 98 -11 -18 71 -78 55 -181 142 -181 153 0
4 44 -17 97 -46 54 -30 101 -54 106 -54 4 0 2 9 -5 20 -7 11 -15 20 -18 20 -4
0 -15 7 -26 15 -18 14 -17 14 16 9 19 -4 63 -20 97 -36 35 -16 96 -35 136 -43
41 -8 107 -31 147 -51 40 -20 86 -40 101 -44 25 -7 29 -6 29 11 0 10 -6 19
-13 19 -8 0 -47 27 -88 60 -41 33 -84 60 -97 60 -12 0 -39 7 -59 15 -28 12
-34 18 -25 27 18 18 14 30 -8 23 -11 -3 -25 -3 -32 2 -8 5 4 10 32 14 25 4 73
12 107 18 52 9 69 9 98 -3 19 -8 35 -18 35 -21 0 -6 -45 1 -60 10 -5 3 -10 1
-10 -4 0 -6 6 -11 14 -11 8 0 16 -10 20 -23 4 -18 18 -26 72 -40 36 -10 68
-16 71 -13 4 4 10 23 28 96 l6 25 -17 -22 c-9 -13 -25 -23 -36 -23 -24 0 -118
49 -118 62 0 5 5 6 10 3 6 -3 10 -2 10 3 0 5 15 10 33 10 17 0 43 3 57 5 14 2
28 5 32 6 4 0 5 7 2 15 -3 8 3 16 15 19 14 3 21 0 21 -9 0 -25 20 -15 34 19
l14 32 12 -33 c7 -17 16 -32 20 -32 17 0 40 32 40 56 0 14 7 27 15 30 8 4 15
10 15 16 0 5 16 30 36 56 l35 47 -6 -55 c-3 -30 -8 -65 -11 -77 -8 -41 4 -24
21 29 10 29 21 57 26 62 5 6 9 18 9 29 0 10 6 28 12 40 7 12 13 31 13 42 1 11
7 48 14 82 14 64 24 73 59 54 9 -5 37 -5 62 -1 25 4 35 8 22 9 -14 0 -22 6
-20 14 8 22 62 41 127 44 l64 2 71 -60 c39 -33 72 -55 74 -49 2 6 -1 17 -7 24
-16 20 -4 25 37 15 73 -17 82 -14 82 31 0 22 -2 40 -4 40 -1 0 -17 -5 -35 -11
-28 -10 -34 -9 -46 7 -8 11 -15 14 -15 7 0 -7 -7 -10 -16 -6 -13 5 -13 7 -2
14 7 5 8 9 3 9 -6 0 -30 17 -52 39 -33 30 -41 43 -36 61 5 20 4 21 -14 11 -23
-12 -33 -6 -33 21 0 10 -7 18 -15 18 -19 0 -45 62 -38 89 6 24 23 28 23 6 0
-19 19 -19 26 0 8 21 31 19 66 -6 46 -33 41 -18 -11 36 -43 46 -66 80 -145
215 -32 56 -65 95 -73 87 -3 -4 0 -13 7 -21 6 -9 16 -32 20 -53 8 -33 7 -36
-5 -20 -7 10 -17 17 -22 16 -4 -1 -14 12 -22 30 -8 17 -20 30 -27 27 -16 -6
-36 18 -29 35 7 19 -10 43 -24 35 -6 -4 -11 -14 -11 -22 0 -20 -24 -18 -43 4
-24 27 -21 43 6 37 21 -6 23 -4 19 30 -2 20 -10 39 -18 42 -14 5 -20 29 -29
108 -3 27 -12 56 -20 65 -8 9 -14 28 -13 41 2 38 -33 192 -49 211 -20 23 -44
104 -48 158 -9 141 -17 184 -45 239 -16 31 -36 89 -45 127 -42 186 -184 419
-386 636 -38 41 -88 78 -168 123 -63 36 -125 68 -137 71 -13 3 -28 12 -35 20
-6 8 -24 14 -40 14 -15 0 -30 4 -34 10 -3 5 -25 9 -48 10 -81 0 -168 7 -174
14 -13 13 -148 6 -178 -10z m260 -211 c-4 -10 -9 -27 -10 -38 -1 -11 -5 -32
-9 -46 -6 -21 0 -34 28 -70 74 -93 127 -170 158 -228 33 -62 49 -84 124 -163
24 -26 44 -51 44 -56 0 -6 6 -12 13 -15 6 -2 9 -8 4 -12 -4 -5 -24 -1 -45 9
-25 12 -70 20 -137 23 -106 5 -176 -6 -197 -33 -7 -9 -24 -27 -37 -40 -19 -19
-21 -27 -12 -38 15 -18 -4 -30 -85 -51 -80 -21 -99 -19 -112 9 -14 31 -92 71
-155 79 -57 8 -139 -9 -167 -35 -20 -19 -20 -18 -20 69 0 143 36 243 111 307
24 20 46 36 51 36 20 0 243 102 281 129 23 16 61 35 84 42 45 13 54 26 55 81
0 18 7 41 16 51 18 20 28 15 17 -10z m417 -597 c28 -21 68 -85 57 -91 -5 -4
-7 -10 -5 -14 3 -4 1 -13 -5 -21 -7 -12 -9 -11 -9 6 0 28 -19 44 -51 44 -15 0
-32 7 -39 16 -11 12 -11 15 1 12 10 -2 13 6 11 30 -2 35 11 41 40 18z m-129
-73 c-7 -2 -21 -2 -30 0 -10 3 -4 5 12 5 17 0 24 -2 18 -5z m-135 -10 c-10 -2
-26 -2 -35 0 -10 3 -2 5 17 5 19 0 27 -2 18 -5z m-115 -20 c-7 -2 -19 -2 -25
0 -7 3 -2 5 12 5 14 0 19 -2 13 -5z m281 -7 c38 -16 46 -40 46 -147 0 -67 -1
-70 -32 -89 -35 -21 -22 -28 15 -9 33 18 37 28 37 97 l0 63 23 -24 c14 -15 38
-26 65 -30 68 -8 95 -65 73 -151 -6 -25 -8 -52 -4 -62 5 -13 3 -15 -8 -9 -12
8 -12 6 -1 -8 8 -9 11 -21 7 -27 -3 -5 -1 -10 5 -10 8 0 10 -9 5 -27 -4 -16
-8 -53 -11 -83 -6 -94 -27 -184 -46 -203 -10 -10 -18 -25 -18 -35 0 -9 -20
-33 -44 -52 -24 -19 -59 -56 -77 -81 -19 -25 -51 -59 -72 -75 -21 -16 -53 -41
-71 -56 -63 -52 -119 -66 -286 -71 l-153 -4 -36 31 c-63 54 -86 82 -110 134
-14 29 -29 52 -34 52 -5 0 -4 -7 3 -15 7 -9 11 -17 9 -19 -2 -2 -13 8 -23 22
-11 14 -14 22 -8 18 7 -4 12 -3 12 3 0 6 -9 15 -20 21 -17 9 -19 8 -14 -7 4
-10 -6 -1 -21 21 -51 72 -143 291 -159 378 -7 37 -6 37 31 43 100 17 117 23
47 18 -40 -3 -83 -3 -96 0 -27 7 -48 46 -68 124 -17 65 -6 93 41 110 l34 13
-32 -26 c-35 -27 -42 -54 -19 -74 8 -6 12 -18 10 -25 -12 -31 52 -133 71 -114
2 3 9 53 16 113 7 65 15 102 20 94 4 -8 23 -31 42 -51 28 -31 40 -37 74 -37
39 0 146 41 158 61 4 5 0 22 -8 38 -14 28 -13 29 4 28 17 -1 19 -10 19 -72 0
-83 -13 -108 -74 -136 -22 -10 -30 -16 -16 -13 85 21 120 65 120 149 0 28 4
44 10 40 6 -3 10 1 10 9 0 9 -5 16 -10 16 -14 0 21 35 42 43 25 9 64 -28 96
-92 40 -80 66 -96 165 -98 l82 -1 -80 8 c-44 4 -88 11 -99 15 -23 10 -65 102
-73 161 l-6 44 48 20 c26 11 50 18 53 16 3 -3 -7 -10 -22 -16 -23 -8 -25 -14
-20 -37 10 -39 12 -42 34 -36 14 4 20 0 20 -11 0 -10 8 -16 21 -16 18 0 19 -3
10 -14 -10 -12 -7 -18 19 -31 18 -9 56 -19 85 -22 56 -6 77 3 143 59 18 15 39
28 46 28 25 0 39 28 32 65 -8 42 -32 54 -120 61 -33 2 -62 7 -65 9 -11 12 123
4 153 -9z m-151 -8 c15 -7 27 -16 27 -20 0 -5 5 -8 10 -8 6 0 21 -9 33 -21
l22 -21 -40 8 c-22 5 -64 8 -92 7 -46 -2 -53 1 -53 17 0 13 9 22 25 26 14 3
25 10 25 15 0 12 11 11 43 -3z m321 -38 c14 -5 26 -14 26 -19 0 -12 -49 -21
-56 -9 -3 4 -10 6 -15 3 -5 -4 -9 -2 -9 4 0 6 -8 7 -17 4 -16 -6 -16 -5 -4 10
15 19 38 21 75 7z m-914 -60 c0 -5 -12 -12 -27 -15 -53 -12 -58 -13 -74 -19
-10 -5 -16 -2 -16 8 0 8 4 13 9 10 4 -3 8 -1 8 5 0 9 28 16 78 20 12 0 22 -3
22 -9z m523 -19 c3 -14 16 -21 43 -24 22 -2 10 -4 -25 -3 -36 0 -59 2 -52 4
10 3 11 6 1 12 -15 9 -5 30 14 30 8 0 16 -9 19 -19z m107 -11 c0 -5 -5 -10
-11 -10 -5 0 -7 5 -4 10 3 6 8 10 11 10 2 0 4 -4 4 -10z m-560 -31 c0 -5 -4
-9 -10 -9 -5 0 -10 7 -10 16 0 8 5 12 10 9 6 -3 10 -10 10 -16z m-118 -20 c16
-25 16 -26 -8 -21 -14 2 -24 11 -24 21 0 15 11 36 15 29 0 -2 8 -15 17 -29z
m95 -15 c-3 -3 -12 -4 -19 -1 -8 3 -5 6 6 6 11 1 17 -2 13 -5z m1003 -99 c0
-8 -4 -17 -10 -20 -6 -4 -10 5 -10 20 0 15 4 24 10 20 6 -3 10 -12 10 -20z m1
-106 c-20 -17 -22 -23 -13 -43 9 -20 7 -27 -8 -41 -27 -24 -50 -12 -50 25 0
20 5 30 15 30 9 0 20 11 25 25 6 17 17 25 32 25 l23 -1 -24 -20z m465 -159 c4
-23 3 -32 -3 -25 -6 6 -13 26 -17 45 -4 23 -3 31 4 24 5 -5 13 -25 16 -44z
m-1127 -1128 c-2 -21 1 -43 5 -50 4 -7 2 -12 -3 -12 -6 0 -11 -4 -11 -10 0
-25 19 -6 38 38 26 57 27 39 6 -58 -9 -39 -23 -74 -30 -77 -16 -6 -19 -33 -4
-33 6 0 10 -23 10 -52 l0 -51 -21 19 c-21 18 -109 191 -109 212 0 25 69 79 93
73 5 -1 11 8 14 19 8 32 14 23 12 -18z m42 -218 c-5 -16 -10 -21 -10 -12 -1
18 10 51 15 45 2 -1 -1 -16 -5 -33z m-155 -5 c6 -5 14 -6 17 -3 4 4 11 -5 16
-19 5 -14 14 -26 19 -28 11 -5 73 -117 107 -194 l24 -56 -30 26 c-17 14 -81
50 -143 79 -61 30 -128 67 -149 84 -33 27 -36 32 -22 45 8 9 15 20 15 26 0 10
14 15 33 12 11 -2 9 27 -3 34 -6 4 -8 10 -5 14 5 10 105 -7 121 -20z m-1190
-16 c-10 -10 -19 5 -10 18 6 11 8 11 12 0 2 -7 1 -15 -2 -18z m1529 -18 c-87
-79 -103 -80 -65 -6 22 44 30 49 80 50 l35 1 -50 -45z m-165 -62 c11 -10 20
-22 20 -27 0 -5 8 -15 18 -23 16 -14 16 -14 -1 -9 -10 3 -29 6 -41 6 -15 0
-27 9 -34 25 -15 32 -15 38 -2 30 6 -3 10 -1 10 4 0 15 7 14 30 -6z m-1341
-410 c14 -28 14 -60 -1 -65 -12 -4 -24 -124 -33 -332 -2 -54 -7 -101 -10 -104
-9 -10 -10 440 -1 588 12 182 20 200 27 59 3 -69 11 -135 18 -146z m108 180
c-3 -10 -5 -2 -5 17 0 19 2 27 5 18 2 -10 2 -26 0 -35z m-165 -1225 c-7 -7
-12 -8 -12 -2 0 14 12 26 19 19 2 -3 -1 -11 -7 -17z"/>
<path d="M3079 3635 c-3 -2 -30 -9 -60 -14 l-54 -10 57 4 c61 5 122 23 82 24
-11 1 -23 -1 -25 -4z"/>
<path d="M2358 3513 c7 -3 16 -2 19 1 4 3 -2 6 -13 5 -11 0 -14 -3 -6 -6z"/>
<path d="M2715 3438 c-11 -6 -22 -14 -25 -18 -3 -4 -19 -10 -36 -14 -23 -5
-37 -2 -57 15 -31 23 -57 19 -57 -9 0 -14 15 -26 51 -41 66 -27 92 -26 157 4
30 14 60 25 67 25 7 0 18 6 24 14 23 27 -82 48 -124 24z"/>
<path d="M2979 3401 c6 -11 31 -32 55 -46 24 -14 51 -34 61 -45 17 -19 19 -19
31 -2 7 9 14 20 14 24 0 7 -116 72 -149 83 -21 6 -22 5 -12 -14z"/>
<path d="M2395 3345 c-22 -13 -50 -29 -61 -34 -12 -5 -24 -19 -27 -30 -3 -14
-1 -19 6 -14 6 4 8 0 5 -9 -5 -11 0 -15 20 -13 48 3 51 5 57 25 4 11 18 34 32
51 35 41 18 54 -32 24z"/>
<path d="M2531 3254 c-29 -13 -62 -24 -73 -24 -38 0 -16 -40 38 -70 l51 -28
-4 42 -5 41 61 19 c52 16 80 17 184 12 67 -4 123 -11 125 -15 2 -5 12 -7 22
-4 14 4 20 0 20 -11 0 -19 2 -20 43 -3 18 8 38 12 45 10 6 -3 12 2 12 11 0 9
-10 18 -22 20 -57 12 -238 26 -336 25 -91 0 -115 -4 -161 -25z"/>
<path d="M2688 3123 c6 -2 18 -2 25 0 6 3 1 5 -13 5 -14 0 -19 -2 -12 -5z"/>
<path d="M2635 3040 c-7 -12 53 -12 110 -1 36 8 33 9 -32 10 -39 0 -75 -3 -78
-9z"/>
<path d="M4430 2452 c0 -10 -5 -23 -12 -30 -6 -6 -8 -15 -4 -19 4 -5 13 0 20
10 7 9 18 17 25 17 8 0 8 6 -1 20 -16 25 -28 26 -28 2z"/>
<path d="M4195 2038 c-13 -39 -36 -146 -50 -233 -20 -129 -34 -174 -60 -205
-12 -14 -28 -37 -37 -51 -19 -31 -102 -233 -112 -271 -3 -16 -11 -28 -17 -28
-6 0 -8 8 -5 18 14 49 17 122 6 122 -7 0 -10 -7 -6 -15 3 -9 -3 -19 -15 -26
-11 -6 -19 -16 -16 -22 4 -12 -22 -44 -33 -40 -7 3 -5 -48 5 -232 12 -203 17
-485 9 -504 -3 -9 -5 -51 -4 -94 1 -58 -3 -83 -14 -95 -9 -11 -16 -45 -19 -95
-4 -73 -3 -79 20 -97 l24 -19 -20 -18 c-12 -10 -16 -20 -11 -23 6 -4 13 -30
17 -58 l6 -52 72 0 73 0 -10 42 c-9 41 13 452 31 575 5 33 4 50 -3 46 -5 -4
-7 1 -3 10 4 10 10 24 13 32 3 8 1 15 -5 15 -6 0 -11 5 -11 11 0 5 3 8 8 6 4
-3 8 14 8 37 1 51 22 136 69 282 94 295 109 344 142 492 8 35 -21 27 -54 -15
-27 -35 -89 -155 -142 -275 -48 -107 -25 -28 38 136 28 70 115 231 182 336 88
136 105 170 85 170 -17 0 -62 -51 -71 -80 -3 -11 -10 -20 -14 -20 -4 0 -13
-11 -19 -25 -13 -28 -32 -34 -32 -10 0 8 -4 15 -9 15 -18 0 -21 34 -5 86 10
35 13 66 8 87 -4 17 -6 47 -5 65 2 32 -6 43 -14 20z m19 -313 c-4 -8 -11 -15
-16 -15 -6 0 -5 6 2 15 7 8 14 15 16 15 2 0 1 -7 -2 -15z m-134 -272 c-16 -51
-62 -172 -98 -258 -16 -38 -32 -79 -37 -90 -7 -19 -7 -19 -16 4 -12 30 -7 45
46 156 23 50 50 108 59 130 45 105 71 138 46 58z"/>
<path d="M3901 1734 c0 -11 3 -14 6 -6 3 7 2 16 -1 19 -3 4 -6 -2 -5 -13z"/>
<path d="M3881 1627 c-7 -48 -10 -91 -7 -94 3 -4 6 5 6 19 0 14 5 39 11 56 6
16 9 47 7 69 -3 30 -6 19 -17 -50z"/>
<path d="M3598 1688 c5 -5 16 -8 23 -6 8 3 3 7 -10 11 -17 4 -21 3 -13 -5z"/>
<path d="M3648 1478 c-2 -110 -4 -170 -6 -181 -1 -4 -15 -1 -32 8 -95 49 -115
34 -35 -25 58 -43 76 -67 58 -79 -13 -7 -1 -97 15 -113 6 -6 8 -24 5 -39 -3
-16 0 -35 6 -43 7 -8 9 -25 6 -39 -4 -14 1 -50 11 -82 18 -56 18 -57 -1 -71
-49 -33 -62 -61 -26 -51 15 4 24 -3 35 -27 18 -38 9 -91 -12 -77 -8 5 -13 11
-13 15 3 19 -2 26 -38 50 -25 18 -49 26 -67 24 l-28 -3 39 -38 c22 -21 52 -40
68 -44 46 -9 55 -47 33 -134 -14 -51 -13 -57 10 -113 43 -105 34 -118 -75
-115 -54 2 -64 -1 -87 -25 -15 -14 -35 -26 -45 -26 -10 0 -21 -5 -24 -10 -3
-6 -24 -10 -46 -10 -26 0 -42 -5 -45 -15 -4 -9 -19 -15 -40 -15 -19 0 -34 -4
-34 -10 0 -5 -7 -10 -14 -10 -8 0 -54 -39 -101 -87 l-86 -88 184 -3 184 -2 78
40 c68 36 145 53 145 33 0 -3 -11 -21 -26 -40 l-25 -33 60 0 60 0 17 57 c14
49 15 69 6 128 -23 142 -32 245 -42 455 -5 118 -12 235 -15 260 -2 25 -9 83
-15 130 -16 141 -30 380 -26 463 2 42 -1 77 -5 77 -5 0 -10 -42 -11 -92z"/>
<path d="M4734 1533 c3 -10 10 -49 15 -88 6 -38 17 -103 26 -143 8 -40 15
-110 16 -155 l1 -82 14 50 c20 68 13 216 -16 325 -12 47 -26 91 -32 98 -15 18
-30 15 -24 -5z"/>
<path d="M3861 1474 c0 -11 3 -14 6 -6 3 7 2 16 -1 19 -3 4 -6 -2 -5 -13z"/>
<path d="M3849 1423 c0 -16 -2 -47 -5 -70 -4 -28 -2 -43 5 -43 12 0 12 0 14
83 1 31 -1 57 -5 57 -5 0 -8 -12 -9 -27z"/>
<path d="M4320 1380 c0 -5 5 -10 11 -10 5 0 7 5 4 10 -3 6 -8 10 -11 10 -2 0
-4 -4 -4 -10z"/>
<path d="M3800 1261 c0 -6 4 -13 10 -16 6 -3 7 1 4 9 -7 18 -14 21 -14 7z"/>
<path d="M2700 1135 c0 -18 16 -20 24 -2 3 6 4 1 3 -13 -1 -15 -8 -25 -17 -25
-30 0 -54 -45 -32 -59 25 -15 81 66 68 99 -7 20 -46 20 -46 0z"/>
<path d="M2812 1072 c-8 -24 -11 -46 -9 -48 8 -8 29 54 25 73 -2 11 -8 2 -16
-25z"/>
<path d="M2773 940 c-23 -80 -43 -193 -53 -290 -5 -52 -12 -113 -15 -135 -5
-39 -5 -39 19 17 13 31 34 67 45 80 12 12 19 28 17 34 -3 7 1 20 9 30 9 13 10
24 4 36 -5 9 -10 35 -11 57 -1 23 -5 41 -10 41 -5 0 -4 10 3 21 8 16 8 23 -1
29 -9 6 -9 13 0 29 6 12 10 39 8 59 l-3 37 -12 -45z"/>
<path d="M3808 883 c7 -3 16 -2 19 1 4 3 -2 6 -13 5 -11 0 -14 -3 -6 -6z"/>
<path d="M2379 813 c-32 -4 -38 -8 -44 -36 -4 -18 -7 -35 -6 -39 0 -5 -3 -8
-9 -8 -16 0 -11 -37 6 -44 27 -10 40 -7 65 17 13 13 39 30 57 38 17 8 32 17
32 22 0 11 -47 57 -57 55 -4 -1 -24 -3 -44 -5z"/>
<path d="M3750 785 c0 -7 5 -17 11 -21 7 -4 7 -9 2 -13 -12 -7 -4 -241 8 -241
4 0 7 53 6 117 -2 89 1 118 11 118 6 0 12 5 11 10 -1 6 -5 9 -10 8 -5 -2 -9 3
-9 11 0 8 -7 16 -15 20 -9 3 -15 0 -15 -9z"/>
<path d="M2110 713 c0 -15 33 -41 46 -36 19 7 18 29 -2 37 -21 8 -44 8 -44 -1z"/>
<path d="M2247 668 c-9 -5 -17 -15 -17 -23 0 -9 -6 -12 -15 -9 -20 8 -29 -19
-15 -46 15 -27 46 -22 42 6 -2 18 1 21 23 17 22 -5 25 -2 25 25 0 33 -17 45
-43 30z"/>
<path d="M2320 660 c0 -5 5 -10 10 -10 6 0 10 5 10 10 0 6 -4 10 -10 10 -5 0
-10 -4 -10 -10z"/>
<path d="M2500 586 c0 -8 5 -18 10 -21 6 -3 10 1 10 9 0 8 -4 18 -10 21 -5 3
-10 -1 -10 -9z"/>
<path d="M3027 555 c-27 -25 -53 -45 -59 -45 -5 0 -24 -11 -42 -25 -19 -14
-62 -35 -97 -47 -35 -11 -71 -27 -80 -34 -18 -16 -41 -18 -55 -4 -7 7 -14 -15
-23 -66 -8 -49 -17 -74 -24 -71 -7 2 -11 11 -9 21 2 9 -4 16 -12 16 -11 0 -15
11 -14 39 0 36 -26 90 -44 91 -13 0 -9 -17 7 -30 19 -16 19 -44 0 -74 -19 -28
-58 -25 -72 7 -6 13 -12 17 -16 10 -4 -7 4 -24 18 -39 14 -15 25 -33 25 -40 0
-8 10 -14 23 -13 36 1 97 -25 97 -41 0 -29 -15 -37 -70 -36 -47 1 -55 -2 -58
-19 -3 -11 -9 -23 -16 -27 -6 -5 -2 -8 11 -8 12 0 27 -8 32 -19 6 -10 23 -23
38 -30 19 -8 28 -19 29 -35 2 -24 1 -24 -39 -10 -23 8 -48 21 -57 28 -42 36
-133 25 -180 -23 l-32 -31 237 0 c215 0 236 2 242 18 4 9 15 23 25 30 10 7 18
20 18 28 0 8 15 29 34 47 18 18 40 47 47 65 8 18 21 32 31 32 9 0 35 24 58 53
23 28 60 72 83 97 72 77 74 86 38 164 -17 36 -35 66 -39 66 -4 0 -29 -20 -55
-45z"/>
<path d="M3330 527 c0 -13 11 -37 25 -53 14 -16 25 -34 25 -41 0 -6 8 -18 18
-25 10 -7 28 -28 41 -45 12 -18 28 -33 35 -33 8 0 19 -7 26 -15 9 -11 17 -12
32 -4 20 11 20 12 -7 35 -15 12 -30 24 -34 26 -13 6 -51 66 -51 82 0 18 -78
96 -97 96 -7 0 -13 -11 -13 -23z m117 -129 c-3 -8 -6 -5 -6 6 -1 11 2 17 5 13
3 -3 4 -12 1 -19z"/>
<path d="M3780 490 c0 -5 5 -10 11 -10 5 0 7 5 4 10 -3 6 -8 10 -11 10 -2 0
-4 -4 -4 -10z"/>
<path d="M3773 435 c0 -8 4 -15 9 -15 5 0 12 -11 17 -23 5 -13 16 -24 25 -24
20 0 21 13 1 21 -8 3 -15 13 -15 21 0 9 -4 13 -10 10 -5 -3 -10 1 -10 9 0 9
-4 16 -8 16 -5 0 -9 -7 -9 -15z"/>
<path d="M3820 410 c0 -5 7 -7 15 -4 8 4 15 8 15 10 0 2 -7 4 -15 4 -8 0 -15
-4 -15 -10z"/>
<path d="M2513 394 c-3 -8 -1 -20 6 -27 13 -13 16 -10 25 21 6 16 3 22 -9 22
-8 0 -18 -7 -22 -16z"/>
<path d="M2190 368 c0 -18 40 -158 52 -185 6 -11 7 -26 4 -32 -4 -6 -3 -11 2
-11 18 0 23 80 7 111 -8 16 -22 42 -30 58 -8 16 -15 36 -15 44 0 9 -4 19 -10
22 -5 3 -10 0 -10 -7z"/>
<path d="M2553 356 c-10 -11 -9 -15 2 -20 10 -4 15 1 15 14 0 23 -1 24 -17 6z"/>
<path d="M2425 120 c3 -5 11 -10 16 -10 6 0 7 5 4 10 -3 6 -11 10 -16 10 -6 0
-7 -4 -4 -10z"/>
<path d="M3831 64 c0 -11 3 -14 6 -6 3 7 2 16 -1 19 -3 4 -6 -2 -5 -13z"/>
<path d="M3821 14 c0 -11 3 -14 6 -6 3 7 2 16 -1 19 -3 4 -6 -2 -5 -13z"/>
</g>
</svg>
